<svg width="100" height="40" fill="none" xmlns="http://www.w3.org/2000/svg"><g clip-path="url(#prefix__clip0)"><path d="M44.008 14.93c-2.289 0-4.674 1.67-4.674 1.67v-1.073c0-.236-.095-.33-.33-.33h-2.92c-.236 0-.378.141-.378.33V38.42c0 .236.095.377.33.377h2.968c.188 0 .33-.141.33-.377V18.822s1.377-.872 3.05-.872c1.593 0 2.85.79 2.85 2.411V38.42c0 .236.141.377.377.377h2.92c.236 0 .33-.189.33-.377V19.336c0-2.874-1.767-4.406-4.853-4.406zm22.72-11.483h-2.921c-.236 0-.377.14-.377.33v11.548c-1.122-.43-2.142-.657-2.968-.657-4.743 0-8 4.535-8 13.254 0 7.47 3.168 11.477 7.302 11.477 1.743 0 3.181-.998 4.234-1.935l.638 1.081c.108.187.196.251.412.251l1.68.002c.188 0 .33-.142.33-.378V3.776c0-.235-.096-.33-.33-.33zM56.324 27.15c0-4.805 1.406-9.563 4.278-9.563.973 0 1.907.32 2.827 1.052v16.927c-.72.391-1.624.752-2.602.752-3.123 0-4.503-3.704-4.503-9.168zm21.59-12.436c-4.864 0-7.265 6.363-7.265 13.287 0 7.248 3.424 11.31 7.827 11.31 1.935 0 3.861-.761 5.124-1.463.194-.108.229-.26.182-.447l-.37-1.53c-.045-.188-.14-.281-.373-.281-.103 0-1.699.466-3.251.466-3.603 0-5.255-3.202-5.255-7.456v-1.033s1.79.247 2.866.247h6.797v-1.964c0-7.252-2.54-11.136-6.282-11.136zm-.234 10.153c-1.075 0-3.033.266-3.033.266s.026-.78.12-1.529c.421-3.977 1.37-5.989 3.007-5.989 1.423 0 2.399 2.059 2.633 5.661.046.749.046 1.59.046 1.59h-2.773zM30.16 17.689c-1.08-2.128-3.004-3.058-5.208-3.058-1.416 0-3.625.541-5.1 1.205-.29.13-.472.243-.472.47 0 .136.068.29.142.424l.994 2.13c.102.24.267.295.402.295.147 0 .267-.07.399-.155 1.44-.92 2.493-1.425 3.328-1.425 1.104 0 1.854.732 2.316 1.834.431 1.026.598 2.445.598 4.083v.482c-.906-.568-2.478-.88-3.262-.88-4.22 0-6.495 4.009-6.495 8.297 0 4.62 2.66 8.008 5.855 8.008 1.78 0 3.392-1.045 4.471-2.362 0 0 .575 1.37.65 1.534.076.164.155.225.371.225l1.708.001c.189 0 .33-.14.33-.377V25.14c0-3.264-.166-5.753-1.027-7.45zm-2.6 17.398c-.838.808-1.84 1.232-2.741 1.232-.902 0-1.599-.417-2.158-1.188-.68-.939-.997-2.384-.997-3.986 0-2.532.935-5.131 2.917-5.131.98 0 2.058.319 2.978 1.05v8.023zm72.062-19.893h-2.604c-.29 0-.44.152-.514.35-.574 1.51-1.146 3.02-1.716 4.53-.322.858-1.188 3.314-1.188 3.314h-.101c-.004-.01-.638-1.787-.982-2.678-.277-.722-1.728-4.542-1.911-5.013-.099-.252-.208-.503-.58-.503h-2.85c-.314 0-.491.344-.39.557.102.214 4.642 10.557 4.642 10.557S86.552 37.89 86.41 38.15c-.142.26.036.645.383.645h2.498c.425 0 .593-.223.72-.581.36-1.006.894-2.404 1.65-4.566.502-1.432 1.295-3.946 1.295-3.946h.088s.868 2.562 1.191 3.4c.816 2.118 1.86 4.885 1.971 5.177.115.306.276.516.569.516h2.832c.28 0 .41-.32.278-.598-.315-.664-3.005-7.2-4.873-11.497 0 0 4.847-10.697 4.942-10.962.096-.265.068-.544-.331-.544z" fill="#272525"/><path d="M20.751.002h-3.284c-.29 0-.472.142-.514.35-.042.208-4.924 15.094-5.279 16.334-.252.879-1.072 3.979-1.269 4.723l-1.698-4.636C8.295 15.497 4.34 4.449 4.224 4.008c-.063-.243-.175-.545-.6-.545H.417c-.314 0-.49.344-.39.558C.11 4.19 5.9 19.596 8.24 25.48V38.42c0 .236.094.377.33.377h3.036c.188 0 .33-.141.33-.377V25.582c1.95-5.446 9.072-24.819 9.15-25.036.094-.265.066-.544-.334-.544z" fill="red"/></g><defs><clipPath id="prefix__clip0"><path fill="#fff" d="M0 0h100v39.4H0z"/></clipPath></defs></svg>