<svg xmlns="http://www.w3.org/2000/svg" width="37" height="48" fill="none"><path fill="#041B2D" fill-opacity=".9" d="M8.256 35.592 3.552 32.52a51.443 51.443 0 0 0 3.36-2.688c1.088-.96 2.016-1.92 2.784-2.88a14.455 14.455 0 0 0 1.824-3.168c.512-1.088.832-2.208.96-3.36l1.248.48c-.448.64-.992 1.088-1.632 1.344-.576.256-1.28.384-2.112.384-1.6 0-2.944-.448-4.032-1.344-1.088-.96-1.632-2.272-1.632-3.936 0-1.536.544-2.784 1.632-3.744 1.088-1.024 2.464-1.536 4.128-1.536 1.792 0 3.232.544 4.32 1.632 1.152 1.088 1.728 2.848 1.728 5.28 0 1.664-.224 3.296-.672 4.896-.384 1.6-.96 3.104-1.728 4.512a28.95 28.95 0 0 1-2.496 3.936 29.614 29.614 0 0 1-2.976 3.264Zm16.512 0-4.704-3.072a51.443 51.443 0 0 0 3.36-2.688c1.088-.96 2.016-1.92 2.784-2.88a14.455 14.455 0 0 0 1.824-3.168c.512-1.088.832-2.208.96-3.36l1.248.48c-.448.64-.992 1.088-1.632 1.344-.576.256-1.28.384-2.112.384-1.6 0-2.944-.448-4.032-1.344-1.088-.96-1.632-2.272-1.632-3.936 0-1.536.544-2.784 1.632-3.744 1.088-1.024 2.464-1.536 4.128-1.536 1.792 0 3.232.544 4.32 1.632 1.152 1.088 1.728 2.848 1.728 5.28 0 1.664-.224 3.296-.672 4.896-.384 1.6-.96 3.104-1.728 4.512a28.95 28.95 0 0 1-2.496 3.936 29.614 29.614 0 0 1-2.976 3.264Z"/></svg>