<svg xmlns="http://www.w3.org/2000/svg" width="37" height="48" fill="none"><path fill="#041B2D" fill-opacity=".9" d="m28.128 11.976 4.704 3.072a35.607 35.607 0 0 0-3.456 2.688 23.05 23.05 0 0 0-2.688 2.976 15.406 15.406 0 0 0-1.92 3.072c-.512 1.024-.8 2.144-.864 3.36l-1.344-.48c.512-.704 1.056-1.152 1.632-1.344.64-.256 1.376-.384 2.208-.384 1.6 0 2.912.48 3.936 1.44 1.088.896 1.632 2.176 1.632 3.84 0 1.536-.544 2.816-1.632 3.84-1.024.96-2.368 1.44-4.032 1.44-1.792 0-3.264-.544-4.416-1.632-1.088-1.152-1.632-2.912-1.632-5.28 0-1.664.192-3.296.576-4.896a22.65 22.65 0 0 1 1.728-4.416 34.36 34.36 0 0 1 2.496-3.936c.96-1.28 1.984-2.4 3.072-3.36Zm-16.512 0 4.704 3.072a35.607 35.607 0 0 0-3.456 2.688 23.05 23.05 0 0 0-2.688 2.976 15.406 15.406 0 0 0-1.92 3.072 11.276 11.276 0 0 0-.864 3.36l-1.248-.48c.448-.704.96-1.152 1.536-1.344.64-.256 1.376-.384 2.208-.384 1.6 0 2.944.48 4.032 1.44 1.088.896 1.632 2.176 1.632 3.84 0 1.536-.544 2.816-1.632 3.84-1.088.96-2.464 1.44-4.128 1.44-1.728 0-3.168-.544-4.32-1.632-1.152-1.152-1.728-2.912-1.728-5.28 0-1.664.192-3.296.576-4.896a22.65 22.65 0 0 1 1.728-4.416 27.886 27.886 0 0 1 2.592-3.936c.96-1.28 1.952-2.4 2.976-3.36Z"/></svg>