<svg width="40" height="40" viewBox="0 0 40 40" fill="none" xmlns="http://www.w3.org/2000/svg">
<path d="M20 40C31.0457 40 40 31.0457 40 20C40 8.95431 31.0457 0 20 0C8.95431 0 0 8.95431 0 20C0 31.0457 8.95431 40 20 40Z" fill="#0D1D40"/>
<path d="M27.1513 23.0907C28.8583 23.0907 30.242 21.7069 30.242 20C30.242 18.2931 28.8583 16.9093 27.1513 16.9093C25.4444 16.9093 24.0607 18.2931 24.0607 20C24.0607 21.7069 25.4444 23.0907 27.1513 23.0907Z" fill="#00EEBC"/>
<path fill-rule="evenodd" clip-rule="evenodd" d="M19.4313 8.66666L12.5066 15.6353C10.1286 18.0287 10.1286 21.9087 12.5066 24.302L14.2193 26.0247C14.2193 26.0247 25.5393 14.7227 25.45 14.7227L19.4313 8.66666Z" fill="#00EEBC"/>
<path fill-rule="evenodd" clip-rule="evenodd" d="M12.506 15.636C12.4063 15.7387 12.3089 15.8436 12.214 15.9507C10.0753 18.3567 10.154 22.0533 12.45 24.364L19.3753 31.3333L25.394 25.2767C25.4526 25.2767 17.2073 17.0193 16.602 16.4127C15.9708 15.7541 15.6189 14.8769 15.62 13.9647C15.62 12.9887 16.0133 12.106 16.6486 11.4667L12.5053 15.636H12.506Z" fill="url(#paint0_linear)"/>
<defs>
<linearGradient id="paint0_linear" x1="12.4599" y1="15.8085" x2="25.6497" y2="23.1055" gradientUnits="userSpaceOnUse">
<stop stop-color="#00A9F9"/>
<stop offset="1" stop-color="#0B89EA"/>
</linearGradient>
</defs>
</svg>
