<svg width="24" height="24" fill="#BDBDBD" xmlns="http://www.w3.org/2000/svg"><path d="M10.1 9.999c0-.919-.626-.919-.626-.919H6.902v1.972h2.413c.417 0 .784-.133.784-1.053zM16.058 11.052c-1.364 0-1.554 1.36-1.554 1.36h2.9s.019-1.36-1.346-1.36zM9.474 12.413h-2.57v2.361H9.18c.039 0 .096.002.164 0 .366-.009 1.061-.113 1.061-1.147 0-1.226-.932-1.214-.932-1.214z" fill="#BDBDBD"/><path d="M12 0C5.383 0 0 5.383 0 12c0 6.616 5.383 12 12 12 6.616 0 12-5.384 12-12 0-6.617-5.383-12-12-12zm2.123 8.031h3.644V9.12h-3.644V8.031zm-1.842 5.706c0 2.696-2.807 2.607-2.807 2.607H4.878V7.511h4.596c1.398 0 2.5.772 2.5 2.353 0 1.58-1.347 1.68-1.347 1.68 1.776 0 1.654 2.193 1.654 2.193zm6.818-.145H14.52c0 1.641 1.555 1.538 1.555 1.538 1.467 0 1.416-.95 1.416-.95h1.556c0 2.522-3.023 2.348-3.023 2.348-3.627 0-3.394-3.376-3.394-3.376s-.003-3.394 3.394-3.394c3.575 0 3.073 3.834 3.074 3.834z" fill="#BDBDBD"/></svg>