<svg width="2263" height="2916" viewBox="0 0 2263 2916" fill="none" xmlns="http://www.w3.org/2000/svg">
<path opacity="0.4" d="M2258.66 2915.83L2263 2915.83C2213.4 2832.85 2196.93 2772.25 2222.62 2776.86L2215.55 2765.22C2189.62 2760.11 2130.21 2693.66 2086.15 2620C2043.93 2549.31 2035.66 2504.79 2064.5 2517.34L2058.38 2507.3C2029.42 2494.42 1972.86 2430.35 1935.1 2367.06C1898.71 2306.18 1896.57 2274.08 1927.43 2292.26L1922.08 2283.53C1891.1 2265.08 1837.16 2203.21 1804.27 2148.27C1772.58 2095.25 1775.14 2072.74 1807.37 2095.25L1802.67 2087.58C1770.44 2064.88 1718.94 2005.38 1690.22 1957.25C1662.39 1910.72 1668.51 1895.78 1701.46 1921.36L1697.29 1914.55C1664.29 1888.8 1614.99 1831.44 1589.54 1788.88C1564.92 1747.64 1573.78 1738.78 1607.2 1766.73L1603.52 1760.66C1570.1 1732.62 1523 1677.41 1500.34 1639.55C1478.4 1602.79 1489.34 1598.77 1522.88 1628.32L1519.55 1622.84C1486.01 1593.15 1440.76 1539.86 1420.48 1505.89C1400.73 1472.87 1413.46 1472.82 1446.94 1503.65L1443.91 1498.72C1410.43 1467.85 1367.02 1416.47 1348.76 1385.92C1330.98 1356.19 1344.9 1359.25 1378.2 1390.85L1375.46 1386.38C1342.16 1354.69 1300.41 1305 1283.88 1277.33C1267.77 1250.34 1282.69 1256.05 1315.76 1288.29L1313.26 1284.22C1280.26 1251.94 1240.12 1204.03 1225.07 1178.87L1219.3 1173.16C1234.35 1198.37 1217.93 1191.06 1181.07 1154.94C1142.59 1117.31 1098.29 1064.57 1083.9 1039.22L1077.18 1032.6C1091.57 1057.99 1069.63 1045.98 1026.15 1003.47C980.723 958.988 931.246 900.444 917.985 875.191L910.017 867.336C923.218 892.59 893.961 874.232 842.047 823.451C787.516 770.113 731.736 704.354 720.318 679.74L710.804 670.287C722.162 694.855 682.855 667.684 619.701 605.989C553.099 540.824 489.231 465.977 480.787 442.87L469.132 431.316C477.398 454.332 424.175 414.74 345.798 338.112C262.545 256.689 188.152 170.015 184.525 149.876L169.896 135.446C173.286 155.402 99.904 97.6797 0.000226824 -8.50927e-05L0.000226673 2.96821C100.201 100.831 179.589 192.939 183.336 215.27C187.26 238.56 108.348 179.879 0.000222926 76.719L0.000222749 80.1896C108.705 183.578 194.694 282.49 199.094 308.748C203.733 336.239 118.398 277.239 0.00021828 168.143L0.000218067 172.344C118.814 281.668 212.534 388.481 217.826 419.854C223.416 452.871 130.47 394.509 0.000212639 279.157L0.000212377 284.317C131.005 399.944 234.061 515.936 240.483 554.112C247.262 594.436 145.277 538.495 0.00020565 416.703L0.000205323 423.142C145.991 545.162 260.404 672.068 268.373 719.424C276.876 769.794 163.949 719.332 0.000196765 591.559L0.000196342 599.87C164.841 727.872 293.408 867.793 303.577 928.164C314.519 992.918 188.033 953.463 0.000185088 821.351L0.00018452 832.539C189.223 964.742 335.986 1120.37 349.426 1199.97C363.995 1286.19 220.502 1268.38 0.000169058 1136.81L0.000168258 1152.57C222.108 1283.9 393.074 1458.76 411.628 1568.45C431.965 1688.96 266.529 1714.63 0.000145687 1596.76L0.000144478 1620.55C268.848 1737.32 473.532 1935.65 500.649 2096.39C531.036 2276.64 336.7 2396.05 0.000108431 2329.93L0.000106389 2370.12C340.446 2432.45 595.379 2658 638.909 2915.87L684.044 2915.87C638.314 2662.84 787.991 2514.56 977.749 2549.04C1137.54 2578.31 1298.15 2733.94 1363.69 2915.87L1385.33 2915.87C1319.68 2736.4 1367.49 2620.6 1472.63 2639.64C1565.04 2656.58 1681.18 2775.31 1746 2915.87L1758.66 2915.87C1694.08 2776.82 1704.85 2682.29 1771.51 2694.35C1831.69 2705.35 1922.26 2801.39 1982.14 2915.87L1990.46 2915.87C1930.82 2802.39 1925.59 2722.66 1971.55 2730.97C2013.83 2738.73 2087.87 2819.29 2142.52 2915.87L2148.41 2915.87C2094.06 2820.02 2081.21 2751.11 2114.87 2757.18C2146.27 2762.89 2208.83 2832.3 2258.66 2915.83ZM1929.69 2364.23C1967.63 2427.79 1972.98 2469.53 1938.37 2454.19C1901.26 2437.7 1835.55 2364.23 1795.71 2293.99C1757.53 2226.73 1761.22 2194.03 1800.11 2216.95C1836.62 2238.55 1893.24 2303.03 1929.69 2364.23ZM1473.76 1932.77C1440.76 1869.98 1459.07 1851.85 1509.97 1887.43C1557.61 1920.72 1619.57 1991.36 1652.28 2049.13C1686.29 2109.32 1679.1 2138.54 1632 2110.46C1581.39 2080.27 1508.31 1998.49 1473.76 1932.77ZM1418.04 1982.82C1349.65 1942.04 1261.11 1844.64 1227.51 1772.3C1195.69 1703.71 1229.47 1691.52 1296.61 1738.37C1358.75 1781.8 1431.54 1863.77 1464.54 1926.74C1499.09 1992.78 1480.96 2020.31 1418.04 1982.82ZM1505.1 1878.48C1454.2 1842.67 1385.75 1765.09 1356.55 1709.56C1328.6 1656.36 1350.13 1648.5 1400.68 1687.68C1448.25 1724.63 1506.94 1792.17 1535.19 1842.13C1564.57 1894 1552.73 1911.95 1505.1 1878.48ZM1291.85 1728.69C1224.83 1681.56 1143.13 1590.19 1115.53 1530.68C1089.19 1473.96 1125.17 1473.74 1190.34 1524.33C1251.18 1571.6 1319.38 1649.32 1347.33 1702.71C1376.47 1758.42 1353.93 1772.35 1291.85 1728.69ZM1256.35 1519.08C1232.33 1473.33 1256.17 1473.19 1306.12 1514.93C1353.22 1554.34 1408.94 1618.91 1433.62 1662.57C1459.19 1707.73 1444.03 1717.09 1396.45 1680.01C1345.85 1640.55 1281.39 1566.67 1256.35 1519.08ZM1186.24 1516.11C1121.06 1465.29 1045.07 1379.16 1021.87 1329.25C999.692 1281.53 1036.86 1289.79 1100.07 1342.63C1159.3 1392.13 1223.41 1465.93 1247.43 1511.78C1272.35 1559.54 1247.01 1563.52 1186.24 1516.11ZM1302.44 1508.21C1252.54 1466.38 1191.83 1396.15 1170.18 1354.96C1149.31 1315.23 1174.64 1320.85 1223.52 1364C1269.91 1404.96 1322.89 1466.84 1344.6 1505.25C1367.08 1544.93 1349.53 1547.72 1302.44 1508.21ZM1096.56 1335.69C1033.53 1282.81 962.704 1201.66 943.021 1159.28C924.11 1118.59 961.574 1132.88 1022.53 1186.63C1079.97 1237.32 1140.45 1307.51 1161.26 1347.33C1182.91 1388.61 1155.73 1385.28 1096.56 1335.69ZM1094.84 1211.8C1076.52 1176.95 1102.81 1187 1150.74 1231.07C1196.23 1272.94 1246.72 1332.26 1265.98 1366.38C1285.85 1401.54 1266.64 1399.16 1220.25 1358.16C1171.37 1314.86 1113.81 1247.83 1094.84 1211.8ZM1019.55 1180.61C958.601 1126.72 892.177 1049.91 875.229 1013.42C858.935 978.305 896.399 997.028 955.211 1051.14C1010.81 1102.29 1068.08 1169.19 1086.34 1204.03C1105.19 1240.15 1076.88 1231.34 1019.55 1180.61ZM1020.45 1078.18C1037.1 1109.96 1008.14 1097.08 952.595 1045.89C893.901 991.776 831.462 919.076 816.773 887.384C802.561 856.788 839.608 878.616 896.221 932.411C950.038 983.557 1004.33 1047.35 1020.45 1078.18ZM1086.16 1113.02C1130.7 1155.35 1178.92 1212.34 1196.11 1242.76C1213.83 1274.13 1193.37 1267.74 1147.88 1225.82C1100.07 1181.75 1045.54 1117.81 1028.83 1086.03C1012.72 1055.3 1039.48 1068.68 1086.16 1113.02ZM806.426 877.657C821.055 909.349 780.082 886.927 710.804 823.04C637.006 755.043 564.219 670.881 553.039 640.239C542.276 610.784 593.893 644.851 664.063 711.569C730.249 774.543 792.333 847.061 806.426 877.657ZM864.584 1003.79C881.413 1040.27 839.965 1021.78 767.119 957.39C689.217 888.48 610.841 798.7 597.698 762.807C585.151 728.42 638.968 760.112 712.945 828.2C782.402 892.179 848.35 968.669 864.584 1003.79ZM931.782 1149.55C951.346 1191.98 909.719 1179.01 833.186 1114.94C750.884 1045.94 666.323 950.038 650.743 907.477C635.876 866.834 691.656 894.69 769.676 963.464C842.641 1027.85 912.99 1108.86 931.782 1149.55ZM1010.28 1319.93C1033.35 1369.94 992.081 1364.82 911.682 1302.17C824.563 1234.26 732.39 1131.15 713.599 1079.78C695.759 1030.96 753.62 1053.11 836.219 1122.11C912.871 1186.18 988.215 1272.12 1010.28 1319.93ZM1103.28 1521.59C1130.82 1581.33 1090.91 1587.58 1006.59 1528.35C914.477 1463.6 813.562 1352.63 790.489 1289.47C768.665 1229.83 828.131 1243.08 915.369 1310.75C995.827 1373.27 1077.06 1464.69 1103.28 1521.59ZM1215.08 1764.17C1248.56 1836.83 1211.57 1859.62 1123.44 1807.05C1026.1 1748.97 914.358 1628.77 885.279 1549.18C857.984 1474.51 918.58 1474.24 1010.99 1538.77C1095.43 1597.81 1183.33 1695.31 1215.08 1764.17ZM1571.64 2291.94C1503.02 2261.48 1406.74 2157.86 1365.11 2068.26C1325.87 1983.78 1355.6 1954.19 1423.87 1994.51C1486.72 2031.69 1564.74 2118.18 1604.17 2193.62C1645.74 2272.94 1634.2 2319.66 1571.64 2291.94ZM1271.1 2159C1169.05 2113.75 1044.35 1983.51 1006.59 1880.3C971.505 1784.31 1031.57 1762.57 1128.97 1820.07C1217.22 1872.26 1312.96 1976.43 1352.15 2061.46C1393.72 2151.7 1362.26 2199.33 1271.1 2159ZM1782.39 2385.19C1733.09 2363.31 1654.89 2277.32 1613.51 2198.46C1574.08 2123.47 1587.34 2091.19 1637.83 2121.01C1684.87 2148.82 1750.52 2222.71 1788.75 2290.34C1828.72 2360.98 1827.94 2405.33 1782.39 2385.19ZM1798.68 2144.57C1831.57 2199.74 1831.09 2229.24 1794.52 2207.41C1755.51 2184.12 1693.37 2113.7 1659.35 2053.79C1626.71 1996.2 1635.39 1975.1 1675.35 2003.01C1713.05 2029.31 1766.99 2091.37 1798.68 2144.57ZM1684.39 1952.87C1713.23 2001.18 1708.3 2021.23 1670.59 1994.74C1630.57 1966.61 1571.82 1899.21 1542.5 1847.56C1514.26 1797.78 1526.57 1785.5 1566.88 1816.78C1605.06 1846.46 1656.5 1906.15 1684.39 1952.87ZM1583.71 1784.04C1609.17 1826.69 1600.9 1839.29 1562.66 1809.52C1522.23 1778.01 1466.33 1713.39 1440.82 1668.37C1416.14 1624.85 1431.12 1619.41 1471.56 1653.2C1509.92 1685.26 1559.03 1742.71 1583.71 1784.04ZM1494.39 1634.3C1517.05 1672.25 1506.17 1679.01 1467.81 1646.81C1427.38 1612.93 1374.27 1551.05 1351.85 1511.46C1330.15 1473.14 1347.04 1473.01 1387.18 1508.4C1425.41 1542.14 1472.45 1597.45 1494.39 1634.3ZM1414.65 1500.5C1434.93 1534.47 1422.08 1536.53 1383.85 1502.69C1343.65 1467.16 1292.98 1407.75 1273.06 1372.63C1253.73 1338.61 1272.17 1342.67 1311.89 1379.25C1349.83 1414.19 1394.91 1467.48 1414.65 1500.5ZM1342.93 1380.3C1361.19 1410.9 1346.86 1409.16 1308.92 1374.23C1269.19 1337.61 1220.85 1280.66 1203.13 1249.33C1185.88 1218.92 1205.27 1226.32 1244.4 1263.49C1281.86 1299.11 1325.15 1350.48 1342.93 1380.3ZM1278.17 1271.66C1294.71 1299.38 1279.19 1294.54 1241.72 1258.88C1202.59 1221.61 1156.27 1166.72 1140.27 1138.64C1124.75 1111.28 1144.97 1121.38 1183.44 1159.01C1220.43 1195.08 1262.06 1244.68 1278.17 1271.66ZM1133.55 1132.11C1149.49 1160.24 1128.14 1150.74 1083.66 1108.36C1036.98 1063.93 985.064 1002.69 970.197 974.469C955.806 947.069 982.923 963.053 1028.47 1007.53C1071.94 1050 1118.03 1104.75 1133.55 1132.11ZM962.11 966.66C976.917 994.882 947.659 978.899 893.961 927.753C837.349 873.821 778.358 804.682 765.394 776.826C752.906 749.883 789.478 774.04 844.128 827.424C896.102 878.251 947.719 939.26 962.11 966.66ZM755.582 767.419C768.427 795.23 728.228 770.022 662.101 707.048C591.99 640.284 523.841 560.962 514.148 534.476C504.812 508.949 554.526 544.614 621.307 609.871C684.579 671.657 743.213 740.522 755.582 767.419ZM198.797 230.111C194.753 207.598 263.259 260.068 346.809 341.674C425.364 418.393 492.859 497.304 502.017 522.74C511.531 549.135 455.752 510.593 372.38 431.225C283.358 346.423 203.019 253.584 198.797 230.111ZM403.481 539.865C307.977 451.866 221.037 352.223 216.042 324.549C211.285 298.108 284.429 350.579 373.629 435.381C457.179 514.84 529.371 598.637 539.956 628C550.958 658.597 492.443 621.881 403.481 539.865ZM235.963 436.203C230.255 404.602 308.988 456.57 404.848 544.797C494.108 626.904 571.652 716.182 584.021 750.477C596.925 786.325 535.556 752.669 440.172 668.323C337.057 577.128 241.97 469.402 235.963 436.203ZM484.236 822.492C372.38 728.694 267.897 611.88 260.583 571.374C253.684 533.06 338.484 583.019 441.837 674.169C537.518 758.605 621.366 854.139 635.995 894.736C651.337 937.343 586.995 908.618 484.236 822.492ZM290.256 737.142C281.693 689.604 373.866 735.681 486.258 829.616C589.314 915.788 680.476 1018.4 698.078 1067.22C716.572 1118.64 649.315 1097.68 538.113 1010.96C415.79 915.605 299.414 787.649 290.256 737.142ZM605.489 1246.59C470.916 1151.97 340.089 1011.23 328.375 946.521C317.492 886.105 417.99 924.51 540.61 1019.72C652.229 1106.4 752.014 1217.14 773.541 1276.92C796.376 1340.25 726.503 1331.62 605.489 1246.59ZM377.018 1217.91C362.687 1138.41 473.354 1163.21 608.64 1257.74C730.071 1342.58 840.441 1462.64 867.379 1537.58C896.161 1617.49 824.385 1628.64 692.072 1549.72C542.513 1460.45 392.539 1303.95 377.018 1217.91ZM807.675 1954.01C640.277 1879.8 465.326 1704.94 443.74 1585.3C424.056 1476.25 546.2 1475.65 696.294 1564.29C829.083 1642.84 952.416 1773.58 987.204 1870.21C1024.61 1974.1 952.892 2018.26 807.675 1954.01ZM537.756 2108.63C509.034 1949.53 644.915 1900.71 813.384 1973.83C959.136 2037.16 1098.76 2179.92 1145.33 2309.24C1195.99 2450.03 1128.85 2551.69 969.662 2520.4C780.439 2483.23 569.868 2286.73 537.756 2108.63ZM1165.66 2316C1118.8 2187.77 1175.83 2131.28 1278.06 2175.72C1369.34 2215.35 1474.41 2326.73 1524.01 2434.37C1577.05 2549.45 1555.76 2635.62 1463.35 2617.44C1358.1 2596.76 1216.63 2455.42 1165.66 2316ZM1536.91 2438.62C1487.32 2331.8 1510.15 2276.55 1578.78 2306.37C1641.28 2333.54 1725.12 2424.78 1773.29 2516.7C1824.2 2613.93 1822.89 2688.14 1762.59 2676.26C1695.57 2663.06 1589.9 2552.78 1536.91 2438.62ZM1782.15 2519.58C1734.16 2428.2 1740.05 2376.37 1789.29 2397.74C1834.78 2417.47 1904.42 2494.74 1949.73 2574.93C1997.3 2659 2005.69 2723.98 1963.23 2715.67C1916.96 2706.54 1832.88 2616.12 1782.15 2519.58ZM1956.21 2577.08C1910.96 2497.34 1907.81 2449.26 1944.85 2465.33C1979.4 2480.35 2038.87 2547.3 2081.27 2618.36C2125.45 2692.43 2138.71 2750.15 2107.26 2743.94C2073.3 2737.27 2003.67 2660.69 1956.21 2577.08Z" fill="#222222" fill-opacity="0.24"/>
</svg>
