<svg width="137" height="17" fill="#BDBDBD" xmlns="http://www.w3.org/2000/svg"><path d="M.32 11.633l.813-.117 3.46-9.891H6.93l3.437 9.89.813.118V13H7.305v-1.367l.789-.14-.5-1.563H3.906l-.5 1.562.79.14V13H.32v-1.367zM4.445 8.25h2.61L5.773 4.242h-.046L4.445 8.25zM11.867 11.633l1.094-.235V6.156l-1.211-.234V4.547h3.336l.101 1.21a3.092 3.092 0 0 1 1.04-1.007c.411-.24.872-.36 1.382-.36.854 0 1.521.269 2 .805.48.537.72 1.378.72 2.524v3.68l1.093.234V13h-4.36v-1.367l.977-.235V7.727c0-.568-.115-.97-.344-1.204-.229-.24-.575-.359-1.039-.359a1.73 1.73 0 0 0-.812.188c-.24.12-.44.291-.602.515v4.531l.922.235V13h-4.297v-1.367zM27.531 13a3.585 3.585 0 0 1-.273-.883c-.271.313-.602.565-.992.758-.386.193-.828.29-1.328.29-.829 0-1.487-.225-1.977-.673-.484-.453-.727-1.068-.727-1.844 0-.791.318-1.403.953-1.835.636-.433 1.568-.649 2.797-.649h1.164v-.828c0-.406-.117-.721-.351-.945-.235-.224-.58-.336-1.04-.336-.26 0-.491.03-.695.093a1.745 1.745 0 0 0-.492.211l-.148.907h-1.719l.008-1.875a6.429 6.429 0 0 1 1.43-.711 5.232 5.232 0 0 1 1.765-.29c1.047 0 1.896.258 2.547.774.656.51.985 1.24.985 2.188v3.859c.005.114.015.224.03.328l.696.094V13h-2.633zm-1.976-1.523c.343 0 .656-.073.937-.22.281-.15.5-.338.656-.562V9.406h-1.164c-.484 0-.851.115-1.101.344-.25.224-.375.495-.375.813 0 .286.091.51.273.671.188.162.446.243.774.243zM33.688 2.477v2.07h1.484v1.601h-1.484v4.305c0 .328.067.563.203.703.135.14.317.211.547.211.156 0 .291-.005.406-.015.12-.016.252-.04.398-.07l.196 1.648a5.112 5.112 0 0 1-.758.172c-.25.041-.521.062-.813.062-.786 0-1.393-.216-1.82-.648-.422-.433-.633-1.118-.633-2.055V6.148h-1.242V4.547h1.242v-2.07h2.273zM36.055 8.695c0-1.26.351-2.291 1.054-3.093.709-.808 1.685-1.211 2.93-1.211 1.25 0 2.227.4 2.93 1.203.708.802 1.062 1.836 1.062 3.101v.164c0 1.271-.354 2.308-1.062 3.11-.703.797-1.675 1.195-2.914 1.195-1.255 0-2.237-.398-2.946-1.195-.703-.802-1.054-1.839-1.054-3.11v-.164zm2.28.164c0 .771.136 1.391.407 1.86.271.463.709.695 1.313.695.588 0 1.018-.234 1.289-.703.276-.469.414-1.086.414-1.852v-.164c0-.75-.138-1.362-.414-1.836-.276-.474-.711-.71-1.305-.71s-1.026.236-1.297.71c-.27.474-.406 1.086-.406 1.836v.164zM44.625 2.188V.812h3.5v10.586l1.102.235V13h-4.485v-1.367l1.102-.235V2.422l-1.219-.235zM58.727 5.922l-.79.117-3.109 8.227a4.511 4.511 0 0 1-.984 1.53c-.407.412-1.021.618-1.844.618a3.06 3.06 0 0 1-.547-.047 10.449 10.449 0 0 1-.594-.133l.266-1.664.227.032c.078.01.145.015.203.015.38 0 .672-.094.875-.281.203-.182.36-.412.468-.688l.258-.64-2.68-6.961-.788-.125V4.547h4.14v1.375l-.945.156 1.156 3.375.117.61.047.007 1.336-3.992-.953-.156V4.547h4.14v1.375zM67.297 3l-.867.156 2.015 6.82.14.626h.048l.133-.61 2.023-6.836L69.93 3V1.625h4.157V3l-.953.125L69.78 13h-2.344l-3.359-9.875L63.141 3V1.625h4.156V3zM78.54 13.164c-1.22 0-2.194-.39-2.923-1.172-.729-.781-1.094-1.773-1.094-2.976v-.313c0-1.255.344-2.289 1.032-3.101.692-.813 1.62-1.217 2.78-1.211 1.142 0 2.027.343 2.657 1.03.63.688.945 1.618.945 2.79v1.242h-5.046l-.016.047c.042.557.227 1.016.555 1.375.333.36.783.54 1.351.54.505 0 .925-.05 1.258-.15a5.984 5.984 0 0 0 1.094-.484l.617 1.406c-.349.277-.802.508-1.36.696a5.734 5.734 0 0 1-1.85.281zm-.204-7.016c-.422 0-.755.162-1 .485-.245.323-.396.747-.453 1.273l.023.04h2.797v-.204c0-.484-.115-.87-.344-1.156-.224-.292-.565-.438-1.023-.438zM83.195 11.633l1.094-.235V6.156l-1.21-.234V4.547h3.335l.102 1.234c.197-.437.453-.778.765-1.023a1.711 1.711 0 0 1 1.086-.367c.12 0 .245.01.375.03.136.016.248.037.336.063l-.242 2.079-.938-.024c-.333 0-.609.065-.828.195-.218.13-.385.315-.5.555v4.11l1.094.234V13h-4.469v-1.367zM97.93 9.008c0 1.26-.282 2.268-.844 3.023-.563.755-1.375 1.133-2.438 1.133-.494 0-.924-.101-1.289-.305a2.661 2.661 0 0 1-.921-.898L92.272 13h-1.968V2.422l-1.211-.235V.813h3.484v4.632c.245-.338.537-.599.875-.78a2.48 2.48 0 0 1 1.18-.274c1.073 0 1.89.406 2.453 1.218.562.808.844 1.886.844 3.235v.164zm-2.274-.164c0-.823-.122-1.474-.367-1.953-.24-.485-.651-.727-1.234-.727-.355 0-.654.076-.899.227a1.518 1.518 0 0 0-.578.632v3.57c.14.261.334.46.578.595.25.135.555.203.914.203.589 0 1-.206 1.235-.618.234-.416.351-1.005.351-1.765v-.164zM98.922 11.633l1.101-.235V6.156l-1.218-.234V4.547h3.5v6.851l1.093.235V13h-4.476v-1.367zm3.383-9.11h-2.282V.813h2.282v1.71zM107.516 2.477v2.07H109v1.601h-1.484v4.305c0 .328.067.563.203.703.135.14.317.211.547.211.156 0 .291-.005.406-.015.12-.016.252-.04.398-.07l.196 1.648a5.138 5.138 0 0 1-.758.172 4.96 4.96 0 0 1-.813.062c-.786 0-1.393-.216-1.82-.648-.422-.433-.633-1.118-.633-2.055V6.148H104V4.547h1.242v-2.07h2.274zM117.016 7.453h-1.532l-.242-1.055a1.983 1.983 0 0 0-.594-.312 2.314 2.314 0 0 0-.781-.125c-.401 0-.719.091-.953.273-.234.177-.352.401-.352.672 0 .255.112.469.336.64.224.168.672.316 1.344.446 1.047.209 1.823.516 2.328.922.506.401.758.956.758 1.664 0 .76-.328 1.383-.984 1.867-.651.48-1.511.72-2.578.72a5.51 5.51 0 0 1-1.797-.282 4.65 4.65 0 0 1-1.446-.82l-.023-1.899h1.594l.312 1.102c.136.114.321.2.555.257.234.053.479.079.734.079.464 0 .815-.084 1.055-.25a.781.781 0 0 0 .367-.68c0-.25-.122-.466-.367-.649-.245-.182-.695-.343-1.352-.484-.994-.203-1.747-.503-2.257-.898-.506-.401-.758-.946-.758-1.633 0-.709.291-1.318.875-1.828.583-.516 1.414-.774 2.492-.774.656 0 1.276.089 1.859.266.589.177 1.05.404 1.383.68l.024 2.101zM118.109 2.188V.812h3.493v7.063h.507l1.313-1.852-.742-.101V4.547h4.156v1.375l-1 .226-1.524 2.094 2.133 3.211.867.18V13h-3.906v-1.367l.469-.078-1.297-2.094h-.976v1.937l.984.235V13h-4.359v-1.367l1.101-.235V2.422l-1.219-.235zM136.867 5.922l-.789.117-3.109 8.227a4.507 4.507 0 0 1-.985 1.53c-.406.412-1.02.618-1.843.618a3.06 3.06 0 0 1-.547-.047 10.357 10.357 0 0 1-.594-.133l.266-1.664.226.032c.078.01.146.015.203.015.381 0 .672-.094.875-.281.203-.182.36-.412.469-.688l.258-.64-2.68-6.961-.789-.125V4.547h4.141v1.375l-.946.156 1.157 3.375.117.61.047.007 1.336-3.992-.953-.156V4.547h4.14v1.375z" fill="#BDBDBD"/></svg>