<svg width="24" height="24" viewBox="0 0 24 24" fill="none" xmlns="http://www.w3.org/2000/svg">
<path d="M12 0C5.374 0 0 5.374 0 12C0 18.626 5.374 24 12 24C18.626 24 24 18.626 24 12C24 5.374 18.626 0 12 0ZM8.513 18.14H5.59V9.349H8.513V18.142V18.14ZM7.052 8.148H7.032C6.052 8.148 5.418 7.473 5.418 6.63C5.418 5.767 6.071 5.11 7.071 5.11C8.071 5.11 8.686 5.767 8.705 6.63C8.705 7.473 8.071 8.148 7.052 8.148ZM19.051 18.142H16.129V13.438C16.129 12.256 15.706 11.449 14.649 11.449C13.841 11.449 13.36 11.993 13.149 12.519C13.072 12.706 13.053 12.969 13.053 13.231V18.141H10.13C10.13 18.141 10.169 10.174 10.13 9.349H13.053V10.594C13.441 9.994 14.136 9.143 15.686 9.143C17.609 9.143 19.051 10.399 19.051 13.1V18.142V18.142Z" fill="black" fill-opacity="1"/>
</svg>
