<svg width="24" height="24" viewBox="0 0 24 24" fill="none" xmlns="http://www.w3.org/2000/svg">
<path d="M12 0C5.383 0 0 5.383 0 12C0 18.616 5.383 24 12 24C18.616 24 24 18.616 24 12C24 5.383 18.617 0 12 0ZM17.353 9.254C17.359 9.372 17.361 9.492 17.361 9.612C17.361 13.262 14.584 17.469 9.502 17.469C8.00118 17.4709 6.53159 17.0404 5.269 16.229C6.72939 16.402 8.19901 15.9912 9.358 15.086C8.78157 15.075 8.22298 14.8842 7.76038 14.5401C7.29777 14.196 6.9543 13.7159 6.778 13.167C7.19179 13.2462 7.61817 13.2305 8.025 13.121C7.39993 12.9947 6.83783 12.656 6.43408 12.1624C6.03034 11.6688 5.80984 11.0507 5.81 10.413V10.378C6.182 10.584 6.608 10.708 7.06 10.723C6.47437 10.333 6.05982 9.73398 5.90108 9.04848C5.74235 8.36299 5.85142 7.64276 6.206 7.035C6.89939 7.88832 7.76446 8.5863 8.74506 9.08367C9.72566 9.58103 10.7999 9.86665 11.898 9.922C11.7579 9.32921 11.8177 8.70673 12.068 8.15144C12.3184 7.59614 12.7453 7.13919 13.2823 6.85169C13.8193 6.56419 14.4363 6.46228 15.0372 6.5618C15.6382 6.66133 16.1894 6.95672 16.605 7.402C17.224 7.28071 17.8176 7.05409 18.36 6.732C18.1533 7.37188 17.7211 7.91489 17.144 8.26C17.6915 8.19576 18.2261 8.04945 18.73 7.826C18.3604 8.38075 17.8939 8.86446 17.353 9.254V9.254Z" fill="black" fill-opacity="1"/>
</svg>
